ffmpeg started on 2016-12-08 at 02:47:10
Report written to "Output/x264/results/ffmpeg/crowd_run_2160p50slower7000k.log"
Command line:
Tools/ffmpeg/ffmpeg -benchmark -y -i Input/y4m/crowd_run_2160p50.y4m -c:v libx264 -preset slower -b:v 7000k -an Output/x264/encoded/crowd_run_2160p50slower7000k.mkv
ffmpeg version N-82227-gdb23fde Copyright (c) 2000-2016 the FFmpeg developers
  built with gcc 5.4.0 (Ubuntu 5.4.0-6ubuntu1~16.04.2) 20160609
  configuration: --prefix=/home/jaroslav/ffmpeg_build --pkg-config-flags=--static --extra-cflags=-I/home/jaroslav/ffmpeg_build/include --extra-ldflags=-L/home/jaroslav/ffmpeg_build/lib --bindir=/home/jaroslav/bin --enable-gpl --enable-libass --enable-libfdk-aac --enable-libfreetype --enable-libmp3lame --enable-libopus --enable-libtheora --enable-libvorbis --enable-libvpx --enable-libx264 --enable-libx265 --enable-nvenc --enable-libmfx --enable-libxvid --enable-libgsm --enable-libopencore-amrnb --enable-version3 --enable-nonfree
  libavutil      55. 35.100 / 55. 35.100
  libavcodec     57. 66.101 / 57. 66.101
  libavformat    57. 57.100 / 57. 57.100
  libavdevice    57.  2.100 / 57.  2.100
  libavfilter     6. 66.100 /  6. 66.100
  libswscale      4.  3.100 /  4.  3.100
  libswresample   2.  4.100 /  2.  4.100
  libpostproc    54.  2.100 / 54.  2.100
Input #0, yuv4mpegpipe, from 'Input/y4m/crowd_run_2160p50.y4m':
  Duration: 00:00:10.00, start: 0.000000, bitrate: 4976642 kb/s
    Stream #0:0: Video: rawvideo (I420 / 0x30323449), yuv420p(progressive), 3840x2160, SAR 1:1 DAR 16:9, 50 fps, 50 tbr, 50 tbn, 50 tbc
[libx264 @ 0x2ae71c0] using SAR=1/1
[libx264 @ 0x2ae71c0] DPB size (8 frames, 259200 mbs) > level limit (5 frames, 184320 mbs)
[libx264 @ 0x2ae71c0] using cpu capabilities: MMX2 SSE2Fast SSSE3 SSE4.2 AVX FMA3 AVX2 LZCNT BMI2
[libx264 @ 0x2ae71c0] profile High, level 5.2
[libx264 @ 0x2ae71c0] 264 - core 148 - H.264/MPEG-4 AVC codec - Copyleft 2003-2016 - http://www.videolan.org/x264.html - options: cabac=1 ref=8 deblock=1:0:0 analyse=0x3:0x133 me=umh subme=9 psy=1 psy_rd=1.00:0.00 mixed_ref=1 me_range=16 chroma_me=1 trellis=2 8x8dct=1 cqm=0 deadzone=21,11 fast_pskip=1 chroma_qp_offset=-2 threads=6 lookahead_threads=1 sliced_threads=0 nr=0 decimate=1 interlaced=0 bluray_compat=0 constrained_intra=0 bframes=3 b_pyramid=2 b_adapt=2 b_bias=0 direct=3 weightb=1 open_gop=0 weightp=2 keyint=250 keyint_min=25 scenecut=40 intra_refresh=0 rc_lookahead=60 rc=abr mbtree=1 bitrate=7000 ratetol=1.0 qcomp=0.60 qpmin=0 qpmax=69 qpstep=4 ip_ratio=1.40 aq=1:1.00
Output #0, matroska, to 'Output/x264/encoded/crowd_run_2160p50slower7000k.mkv':
  Metadata:
    encoder         : Lavf57.57.100
    Stream #0:0: Video: h264 (libx264) (H264 / 0x34363248), yuv420p, 3840x2160 [SAR 1:1 DAR 16:9], q=-1--1, 7000 kb/s, 50 fps, 1k tbn, 50 tbc
    Metadata:
      encoder         : Lavc57.66.101 libx264
    Side data:
      cpb: bitrate max/min/avg: 0/0/7000000 buffer size: 0 vbv_delay: -1
Stream mapping:
  Stream #0:0 -> #0:0 (rawvideo (native) -> h264 (libx264))
Press [q] to stop, [?] for help
frame=   19 fps=0.0 q=0.0 size=       0kB time=00:00:00.00 bitrate=N/A speed=   0x    frame=   31 fps= 29 q=0.0 size=       0kB time=00:00:00.00 bitrate=N/A speed=   0x    frame=   39 fps= 25 q=0.0 size=       0kB time=00:00:00.00 bitrate=N/A speed=   0x    frame=   47 fps= 22 q=0.0 size=       0kB time=00:00:00.00 bitrate=N/A speed=   0x    frame=   55 fps= 21 q=0.0 size=       0kB time=00:00:00.00 bitrate=N/A speed=   0x    frame=   63 fps= 20 q=0.0 size=       0kB time=00:00:00.00 bitrate=N/A speed=   0x    frame=   67 fps= 10 q=0.0 size=       0kB time=00:00:00.00 bitrate=N/A speed=   0x    frame=   72 fps=9.6 q=38.0 size=       1kB time=-00:00:00.01 bitrate=N/A speed=N/A    frame=   74 fps=9.2 q=40.0 size=       1kB time=00:00:00.02 bitrate= 280.4kbits/s speed=0.0026x    frame=   76 fps=8.7 q=54.0 size=       1kB time=00:00:00.06 bitrate=  96.5kbits/s speed=0.00694x    frame=   80 fps=8.6 q=53.0 size=       1kB time=00:00:00.14 bitrate=  41.8kbits/s speed=0.0151x    frame=   81 fps=8.2 q=53.0 size=       1kB time=00:00:00.16 bitrate=  36.6kbits/s speed=0.0163x    frame=   83 fps=7.7 q=53.0 size=       1kB time=00:00:00.20 bitrate=  29.3kbits/s speed=0.0186x    frame=   87 fps=7.4 q=52.0 size=       1kB time=00:00:00.28 bitrate=  21.0kbits/s speed=0.0238x    frame=   90 fps=7.1 q=52.0 size=       1kB time=00:00:00.34 bitrate=  17.3kbits/s speed=0.0271x    frame=   92 fps=6.9 q=51.0 size=       1kB time=00:00:00.38 bitrate=  15.5kbits/s speed=0.0286x    frame=   96 fps=6.9 q=51.0 size=       1kB time=00:00:00.46 bitrate=  12.8kbits/s speed=0.0331x    frame=   97 fps=6.7 q=51.0 size=       1kB time=00:00:00.48 bitrate=  12.2kbits/s speed=0.0333x    frame=   99 fps=6.5 q=51.0 size=       1kB time=00:00:00.52 bitrate=  11.3kbits/s speed=0.0342x    frame=  103 fps=6.4 q=51.0 size=       1kB time=00:00:00.60 bitrate=   9.8kbits/s speed=0.0371x    frame=  107 fps=6.1 q=51.0 size=       1kB time=00:00:00.68 bitrate=   8.6kbits/s speed=0.039x    frame=  110 fps=6.1 q=51.0 size=       1kB time=00:00:00.74 bitrate=   7.9kbits/s speed=0.0409x    frame=  113 fps=5.9 q=51.0 size=       1kB time=00:00:00.80 bitrate=   7.4kbits/s speed=0.042x    frame=  116 fps=5.9 q=51.0 size=       1kB time=00:00:00.86 bitrate=   6.8kbits/s speed=0.0435x    frame=  118 fps=5.8 q=51.0 size=       1kB time=00:00:00.90 bitrate=   6.5kbits/s speed=0.0443x    frame=  121 fps=5.6 q=51.0 size=       1kB time=00:00:00.96 bitrate=   6.1kbits/s speed=0.0448x    frame=  126 fps=5.7 q=51.0 size=       1kB time=00:00:01.06 bitrate=   5.5kbits/s speed=0.0476x    frame=  127 fps=5.5 q=50.0 size=       1kB time=00:00:01.08 bitrate=   5.4kbits/s speed=0.0468x    frame=  131 fps=5.5 q=50.0 size=       1kB time=00:00:01.16 bitrate=   5.1kbits/s speed=0.0485x    frame=  134 fps=5.4 q=50.0 size=       1kB time=00:00:01.22 bitrate=   4.8kbits/s speed=0.0492x    frame=  137 fps=5.4 q=50.0 size=       1kB time=00:00:01.28 bitrate=   4.6kbits/s speed=0.0505x    frame=  139 fps=5.3 q=50.0 size=       1kB time=00:00:01.32 bitrate=   4.5kbits/s speed=0.0504x    frame=  142 fps=5.2 q=50.0 size=       1kB time=00:00:01.38 bitrate=   4.3kbits/s speed=0.0509x    frame=  144 fps=5.2 q=50.0 size=       1kB time=00:00:01.42 bitrate=   4.1kbits/s speed=0.0513x    frame=  148 fps=5.2 q=50.0 size=       1kB time=00:00:01.50 bitrate=   3.9kbits/s speed=0.0526x    frame=  150 fps=5.1 q=50.0 size=       1kB time=00:00:01.54 bitrate=   3.8kbits/s speed=0.0526x    frame=  152 fps=5.1 q=50.0 size=       1kB time=00:00:01.58 bitrate=   3.7kbits/s speed=0.0529x    frame=  154 fps=5.0 q=50.0 size=       1kB time=00:00:01.62 bitrate=   3.6kbits/s speed=0.0531x    frame=  156 fps=5.0 q=50.0 size=       1kB time=00:00:01.66 bitrate=   3.5kbits/s speed=0.0535x    frame=  159 fps=5.0 q=50.0 size=       1kB time=00:00:01.72 bitrate=   3.4kbits/s speed=0.0539x    frame=  162 fps=4.9 q=50.0 size=       1kB time=00:00:01.78 bitrate=   3.3kbits/s speed=0.0543x    frame=  164 fps=4.9 q=50.0 size=       1kB time=00:00:01.82 bitrate=   3.2kbits/s speed=0.0545x    frame=  167 fps=4.9 q=50.0 size=       1kB time=00:00:01.88 bitrate=   3.1kbits/s speed=0.0553x    frame=  169 fps=4.9 q=49.0 size=       1kB time=00:00:01.92 bitrate=   3.1kbits/s speed=0.0555x    frame=  171 fps=4.8 q=49.0 size=       1kB time=00:00:01.96 bitrate=   3.0kbits/s speed=0.0554x    frame=  174 fps=4.8 q=49.0 size=       1kB time=00:00:02.02 bitrate=   2.9kbits/s speed=0.0561x    frame=  177 fps=4.8 q=49.0 size=       1kB time=00:00:02.08 bitrate=   2.8kbits/s speed=0.0563x    frame=  179 fps=4.8 q=49.0 size=       1kB time=00:00:02.12 bitrate=   2.8kbits/s speed=0.0564x    frame=  183 fps=4.8 q=49.0 size=       1kB time=00:00:02.20 bitrate=   2.7kbits/s speed=0.0572x    frame=  184 fps=4.7 q=49.0 size=       1kB time=00:00:02.22 bitrate=   2.7kbits/s speed=0.0566x    frame=  188 fps=4.7 q=49.0 size=       1kB time=00:00:02.30 bitrate=   2.6kbits/s speed=0.0577x    frame=  191 fps=4.7 q=49.0 size=       1kB time=00:00:02.36 bitrate=   2.5kbits/s speed=0.0577x    frame=  193 fps=4.6 q=49.0 size=       1kB time=00:00:02.40 bitrate=   2.5kbits/s speed=0.0577x    frame=  196 fps=4.6 q=49.0 size=       1kB time=00:00:02.46 bitrate=   2.4kbits/s speed=0.0581x    frame=  199 fps=4.6 q=49.0 size=       1kB time=00:00:02.52 bitrate=   2.3kbits/s speed=0.0584x    frame=  202 fps=4.6 q=49.0 size=       1kB time=00:00:02.58 bitrate=   2.3kbits/s speed=0.0586x    frame=  203 fps=4.6 q=49.0 size=       1kB time=00:00:02.60 bitrate=   2.3kbits/s speed=0.0583x    frame=  207 fps=4.5 q=49.0 size=       1kB time=00:00:02.68 bitrate=   2.2kbits/s speed=0.0589x    frame=  210 fps=4.5 q=49.0 size=       1kB time=00:00:02.74 bitrate=   2.1kbits/s speed=0.0591x    frame=  211 fps=4.5 q=49.0 size=       1kB time=00:00:02.76 bitrate=   2.1kbits/s speed=0.0589x    frame=  215 fps=4.5 q=49.0 size=       1kB time=00:00:02.84 bitrate=   2.1kbits/s speed=0.0595x    frame=  217 fps=4.5 q=49.0 size=       1kB time=00:00:02.88 bitrate=   2.0kbits/s speed=0.0595x    frame=  219 fps=4.5 q=49.0 size=       1kB time=00:00:02.92 bitrate=   2.0kbits/s speed=0.0596x    frame=  222 fps=4.5 q=49.0 size=       1kB time=00:00:02.98 bitrate=   2.0kbits/s speed=0.0598x    frame=  225 fps=4.5 q=49.0 size=       1kB time=00:00:03.04 bitrate=   1.9kbits/s speed=0.0603x    frame=  226 fps=4.4 q=49.0 size=       1kB time=00:00:03.06 bitrate=   1.9kbits/s speed=0.0601x    frame=  228 fps=4.4 q=49.0 size=       1kB time=00:00:03.10 bitrate=   1.9kbits/s speed=0.0602x    frame=  229 fps=4.4 q=49.0 size=       1kB time=00:00:03.12 bitrate=   1.9kbits/s speed=0.0599x    frame=  233 fps=4.4 q=49.0 size=       1kB time=00:00:03.20 bitrate=   1.8kbits/s speed=0.0605x    frame=  235 fps=4.4 q=49.0 size=       1kB time=00:00:03.24 bitrate=   1.8kbits/s speed=0.0606x    frame=  237 fps=4.4 q=49.0 size=       1kB time=00:00:03.28 bitrate=   1.8kbits/s speed=0.0604x    frame=  240 fps=4.4 q=49.0 size=       1kB time=00:00:03.34 bitrate=   1.8kbits/s speed=0.0607x    frame=  242 fps=4.3 q=49.0 size=       1kB time=00:00:03.38 bitrate=   1.7kbits/s speed=0.0607x    frame=  245 fps=4.3 q=49.0 size=       1kB time=00:00:03.44 bitrate=   1.7kbits/s speed=0.0608x    frame=  249 fps=4.3 q=49.0 size=       1kB time=00:00:03.52 bitrate=   1.7kbits/s speed=0.0612x    frame=  250 fps=4.3 q=49.0 size=       1kB time=00:00:03.54 bitrate=   1.7kbits/s speed=0.061x    frame=  252 fps=4.3 q=49.0 size=       1kB time=00:00:03.58 bitrate=   1.6kbits/s speed=0.0611x    frame=  256 fps=4.3 q=49.0 size=       1kB time=00:00:03.66 bitrate=   1.6kbits/s speed=0.0611x    frame=  260 fps=4.3 q=49.0 size=       1kB time=00:00:03.74 bitrate=   1.6kbits/s speed=0.0619x    frame=  262 fps=4.3 q=49.0 size=       1kB time=00:00:03.78 bitrate=   1.6kbits/s speed=0.0615x    frame=  264 fps=4.2 q=49.0 size=       1kB time=00:00:03.82 bitrate=   1.5kbits/s speed=0.0615x    frame=  267 fps=4.2 q=49.0 size=       1kB time=00:00:03.88 bitrate=   1.5kbits/s speed=0.0616x    frame=  270 fps=4.2 q=49.0 size=       1kB time=00:00:03.94 bitrate=   1.5kbits/s speed=0.0617x    frame=  272 fps=4.2 q=49.0 size=       1kB time=00:00:03.98 bitrate=   1.5kbits/s speed=0.0616x    frame=  276 fps=4.2 q=49.0 size=       1kB time=00:00:04.06 bitrate=   1.4kbits/s speed=0.0623x    frame=  278 fps=4.2 q=49.0 size=       1kB time=00:00:04.10 bitrate=   1.4kbits/s speed=0.0619x    frame=  282 fps=4.2 q=49.0 size=       1kB time=00:00:04.18 bitrate=   1.4kbits/s speed=0.0621x    frame=  285 fps=4.2 q=49.0 size=       1kB time=00:00:04.24 bitrate=   1.4kbits/s speed=0.0622x    frame=  286 fps=4.2 q=49.0 size=       1kB time=00:00:04.26 bitrate=   1.4kbits/s speed=0.0621x    frame=  289 fps=4.2 q=49.0 size=       1kB time=00:00:04.32 bitrate=   1.4kbits/s speed=0.0623x    frame=  291 fps=4.2 q=49.0 size=       1kB time=00:00:04.36 bitrate=   1.4kbits/s speed=0.0623x    frame=  293 fps=4.2 q=49.0 size=       1kB time=00:00:04.40 bitrate=   1.3kbits/s speed=0.0624x    frame=  294 fps=4.1 q=49.0 size=       1kB time=00:00:04.42 bitrate=   1.3kbits/s speed=0.0622x    frame=  297 fps=4.1 q=49.0 size=       1kB time=00:00:04.48 bitrate=   1.3kbits/s speed=0.0626x    frame=  299 fps=4.1 q=49.0 size=       1kB time=00:00:04.52 bitrate=   1.3kbits/s speed=0.0627x    frame=  300 fps=4.1 q=49.0 size=       1kB time=00:00:04.54 bitrate=   1.3kbits/s speed=0.0624x    frame=  302 fps=4.1 q=49.0 size=       1kB time=00:00:04.58 bitrate=   1.3kbits/s speed=0.0624x    frame=  305 fps=4.1 q=49.0 size=       1kB time=00:00:04.64 bitrate=   1.3kbits/s speed=0.0627x    frame=  307 fps=4.1 q=49.0 size=       1kB time=00:00:04.68 bitrate=   1.3kbits/s speed=0.0625x    frame=  309 fps=4.1 q=49.0 size=       1kB time=00:00:04.72 bitrate=   1.2kbits/s speed=0.0624x    frame=  313 fps=4.1 q=49.0 size=       1kB time=00:00:04.80 bitrate=   1.2kbits/s speed=0.0625x    frame=  317 fps=4.1 q=49.0 size=       1kB time=00:00:04.88 bitrate=   1.2kbits/s speed=0.063x    frame=  319 fps=4.1 q=49.0 size=       1kB time=00:00:04.92 bitrate=   1.2kbits/s speed=0.063x    frame=  320 fps=4.1 q=49.0 size=       1kB time=00:00:04.94 bitrate=   1.2kbits/s speed=0.0627x    frame=  327 fps=4.1 q=49.0 size=    4373kB time=00:00:05.08 bitrate=7051.1kbits/s speed=0.064x    frame=  328 fps=4.1 q=49.0 size=    4373kB time=00:00:05.10 bitrate=7023.4kbits/s speed=0.0637x    frame=  331 fps=4.1 q=49.0 size=    4373kB time=00:00:05.16 bitrate=6941.8kbits/s speed=0.064x    frame=  333 fps=4.1 q=49.0 size=    4373kB time=00:00:05.20 bitrate=6888.4kbits/s speed=0.064x    frame=  335 fps=4.1 q=49.0 size=    4373kB time=00:00:05.24 bitrate=6835.8kbits/s speed=0.064x    frame=  338 fps=4.1 q=49.0 size=    4373kB time=00:00:05.30 bitrate=6758.4kbits/s speed=0.064x    frame=  340 fps=4.1 q=49.0 size=    4373kB time=00:00:05.34 bitrate=6707.8kbits/s speed=0.064x    frame=  344 fps=4.1 q=49.0 size=    4373kB time=00:00:05.42 bitrate=6608.8kbits/s speed=0.0641x    frame=  346 fps=4.1 q=49.0 size=    4373kB time=00:00:05.46 bitrate=6560.4kbits/s speed=0.0642x    frame=  349 fps=4.1 q=49.0 size=    4373kB time=00:00:05.52 bitrate=6489.1kbits/s speed=0.0642x    frame=  352 fps=4.1 q=49.0 size=    4373kB time=00:00:05.58 bitrate=6419.4kbits/s speed=0.0642x    frame=  354 fps=4.0 q=49.0 size=    4373kB time=00:00:05.62 bitrate=6373.7kbits/s speed=0.0643x    frame=  357 fps=4.0 q=49.0 size=    4373kB time=00:00:05.68 bitrate=6306.4kbits/s speed=0.064x    frame=  361 fps=4.0 q=49.0 size=    4373kB time=00:00:05.76 bitrate=6218.8kbits/s speed=0.0645x    frame=  363 fps=4.0 q=49.0 size=    4373kB time=00:00:05.80 bitrate=6175.9kbits/s speed=0.0642x    frame=  365 fps=4.0 q=49.0 size=    4373kB time=00:00:05.84 bitrate=6133.6kbits/s speed=0.0642x    frame=  369 fps=4.0 q=49.0 size=    4373kB time=00:00:05.92 bitrate=6050.8kbits/s speed=0.0642x    frame=  372 fps=4.0 q=49.0 size=    4373kB time=00:00:05.98 bitrate=5990.1kbits/s speed=0.0644x    frame=  374 fps=4.0 q=49.0 size=    4373kB time=00:00:06.02 bitrate=5950.3kbits/s speed=0.0643x    frame=  376 fps=4.0 q=49.0 size=    4373kB time=00:00:06.06 bitrate=5911.0kbits/s speed=0.0643x    frame=  378 fps=4.0 q=49.0 size=    4373kB time=00:00:06.10 bitrate=5872.2kbits/s speed=0.0643x    frame=  380 fps=4.0 q=49.0 size=    4373kB time=00:00:06.14 bitrate=5834.0kbits/s speed=0.0642x    frame=  384 fps=4.0 q=49.0 size=    4373kB time=00:00:06.22 bitrate=5759.0kbits/s speed=0.0647x    frame=  385 fps=4.0 q=49.0 size=    4373kB time=00:00:06.24 bitrate=5740.5kbits/s speed=0.0644x    frame=  387 fps=4.0 q=49.0 size=    4373kB time=00:00:06.28 bitrate=5703.9kbits/s speed=0.0642x    frame=  391 fps=4.0 q=49.0 size=    4373kB time=00:00:06.36 bitrate=5632.2kbits/s speed=0.0646x    frame=  393 fps=4.0 q=49.0 size=    4373kB time=00:00:06.40 bitrate=5597.0kbits/s speed=0.0644x    frame=  395 fps=4.0 q=49.0 size=    4373kB time=00:00:06.44 bitrate=5562.3kbits/s speed=0.0645x    frame=  398 fps=4.0 q=49.0 size=    4373kB time=00:00:06.50 bitrate=5510.9kbits/s speed=0.0646x    frame=  399 fps=3.9 q=49.0 size=    4373kB time=00:00:06.52 bitrate=5494.0kbits/s speed=0.0644x    frame=  403 fps=3.9 q=49.0 size=    4373kB time=00:00:06.60 bitrate=5427.4kbits/s speed=0.0646x    frame=  405 fps=3.9 q=49.0 size=    4373kB time=00:00:06.64 bitrate=5394.7kbits/s speed=0.0645x    frame=  407 fps=3.9 q=49.0 size=    4373kB time=00:00:06.68 bitrate=5362.4kbits/s speed=0.0645x    frame=  410 fps=3.9 q=49.0 size=    4373kB time=00:00:06.74 bitrate=5314.7kbits/s speed=0.0647x    frame=  411 fps=3.9 q=49.0 size=    4373kB time=00:00:06.76 bitrate=5299.0kbits/s speed=0.0644x    frame=  415 fps=3.9 q=49.0 size=    4373kB time=00:00:06.84 bitrate=5237.0kbits/s speed=0.0647x    frame=  417 fps=3.9 q=49.0 size=    4373kB time=00:00:06.88 bitrate=5206.6kbits/s speed=0.0647x    frame=  419 fps=3.9 q=49.0 size=    4373kB time=00:00:06.92 bitrate=5176.5kbits/s speed=0.0645x    frame=  422 fps=3.9 q=49.0 size=    4373kB time=00:00:06.98 bitrate=5132.0kbits/s speed=0.0647x    frame=  424 fps=3.9 q=49.0 size=    4373kB time=00:00:07.02 bitrate=5102.8kbits/s speed=0.0645x    frame=  428 fps=3.9 q=49.0 size=    4373kB time=00:00:07.10 bitrate=5045.3kbits/s speed=0.0647x    frame=  431 fps=3.9 q=49.0 size=    4373kB time=00:00:07.16 bitrate=5003.0kbits/s speed=0.0646x    frame=  433 fps=3.9 q=49.0 size=    4373kB time=00:00:07.20 bitrate=4975.2kbits/s speed=0.0646x    frame=  436 fps=3.9 q=49.0 size=    4373kB time=00:00:07.26 bitrate=4934.1kbits/s speed=0.0648x    frame=  439 fps=3.9 q=49.0 size=    4373kB time=00:00:07.32 bitrate=4893.7kbits/s speed=0.0648x    frame=  441 fps=3.9 q=49.0 size=    4373kB time=00:00:07.36 bitrate=4867.1kbits/s speed=0.0648x    frame=  443 fps=3.9 q=49.0 size=    4373kB time=00:00:07.40 bitrate=4840.8kbits/s speed=0.0648x    frame=  446 fps=3.9 q=49.0 size=    4373kB time=00:00:07.46 bitrate=4801.8kbits/s speed=0.0647x    frame=  448 fps=3.9 q=49.0 size=    4373kB time=00:00:07.50 bitrate=4776.2kbits/s speed=0.0647x    frame=  451 fps=3.9 q=49.0 size=    4373kB time=00:00:07.56 bitrate=4738.3kbits/s speed=0.0649x    frame=  453 fps=3.9 q=49.0 size=    4373kB time=00:00:07.60 bitrate=4713.4kbits/s speed=0.0648x    frame=  455 fps=3.9 q=49.0 size=    4373kB time=00:00:07.64 bitrate=4688.7kbits/s speed=0.0648x    frame=  459 fps=3.8 q=49.0 size=    4373kB time=00:00:07.72 bitrate=4640.1kbits/s speed=0.0647x    frame=  462 fps=3.9 q=49.0 size=    4373kB time=00:00:07.78 bitrate=4604.4kbits/s speed=0.0649x    frame=  463 fps=3.8 q=49.0 size=    4373kB time=00:00:07.80 bitrate=4592.6kbits/s speed=0.0648x    frame=  467 fps=3.8 q=49.0 size=    4373kB time=00:00:07.88 bitrate=4545.9kbits/s speed=0.0648x    frame=  470 fps=3.8 q=49.0 size=    4373kB time=00:00:07.94 bitrate=4511.6kbits/s speed=0.065x    frame=  471 fps=3.8 q=49.0 size=    4373kB time=00:00:07.96 bitrate=4500.3kbits/s speed=0.0648x    frame=  474 fps=3.8 q=49.0 size=    4373kB time=00:00:08.02 bitrate=4466.6kbits/s speed=0.0648x    frame=  476 fps=3.8 q=49.0 size=    4373kB time=00:00:08.06 bitrate=4444.4kbits/s speed=0.0647x    frame=  479 fps=3.8 q=49.0 size=    4373kB time=00:00:08.12 bitrate=4411.6kbits/s speed=0.0649x    frame=  481 fps=3.8 q=49.0 size=    4373kB time=00:00:08.16 bitrate=4390.0kbits/s speed=0.0649x    frame=  483 fps=3.8 q=49.0 size=    4373kB time=00:00:08.20 bitrate=4368.6kbits/s speed=0.0649x    frame=  486 fps=3.8 q=49.0 size=    4373kB time=00:00:08.26 bitrate=4336.8kbits/s speed=0.0648x    frame=  490 fps=3.8 q=49.0 size=    4373kB time=00:00:08.34 bitrate=4295.2kbits/s speed=0.065x    frame=  492 fps=3.8 q=49.0 size=    4373kB time=00:00:08.38 bitrate=4274.7kbits/s speed=0.065x    frame=  494 fps=3.8 q=49.0 size=    4373kB time=00:00:08.42 bitrate=4254.4kbits/s speed=0.0649x    frame=  497 fps=3.8 q=49.0 size=    4373kB time=00:00:08.48 bitrate=4224.3kbits/s speed=0.065x    frame=  499 fps=3.8 q=49.0 size=    4373kB time=00:00:08.52 bitrate=4204.5kbits/s speed=0.0651x    frame=  500 fps=3.8 q=49.0 size=    4373kB time=00:00:08.54 bitrate=4194.6kbits/s speed=0.0646x    frame=  500 fps=3.3 q=-1.0 Lsize=    8615kB time=00:00:09.94 bitrate=7099.4kbits/s speed=0.0657x    
video:8611kB audio:0kB subtitle:0kB other streams:0kB global headers:0kB muxing overhead: 0.050615%
bench: utime=569.376s
bench: maxrss=2510840kB
[libx264 @ 0x2ae71c0] frame I:2     Avg QP:38.50  size:246240
[libx264 @ 0x2ae71c0] frame P:134   Avg QP:47.94  size: 32838
[libx264 @ 0x2ae71c0] frame B:364   Avg QP:49.89  size: 10780
[libx264 @ 0x2ae71c0] consecutive B-frames:  0.4%  2.8% 14.4% 82.4%
[libx264 @ 0x2ae71c0] mb I  I16..4: 28.0% 67.1%  4.9%
[libx264 @ 0x2ae71c0] mb P  I16..4:  2.9%  3.5%  0.0%  P16..4: 30.3%  1.4%  3.1%  0.0%  0.0%    skip:58.7%
[libx264 @ 0x2ae71c0] mb B  I16..4:  0.0%  0.0%  0.0%  B16..8: 31.7%  0.5%  0.0%  direct: 0.1%  skip:67.6%  L0:40.4% L1:59.5% BI: 0.1%
[libx264 @ 0x2ae71c0] final ratefactor: 40.83
[libx264 @ 0x2ae71c0] 8x8 transform intra:56.7% inter:93.1%
[libx264 @ 0x2ae71c0] direct mvs  spatial:98.9% temporal:1.1%
[libx264 @ 0x2ae71c0] coded y,uvDC,uvAC intra: 15.9% 38.7% 9.2% inter: 1.0% 3.7% 0.0%
[libx264 @ 0x2ae71c0] i16 v,h,dc,p: 40% 24%  5% 31%
[libx264 @ 0x2ae71c0] i8 v,h,dc,ddl,ddr,vr,hd,vl,hu:  9%  4% 26% 10% 12% 11% 11%  9%  8%
[libx264 @ 0x2ae71c0] i4 v,h,dc,ddl,ddr,vr,hd,vl,hu:  6%  4%  2% 14% 17% 16% 16% 12% 15%
[libx264 @ 0x2ae71c0] i8c dc,h,v,p: 66% 15% 13%  7%
[libx264 @ 0x2ae71c0] Weighted P-Frames: Y:0.7% UV:0.0%
[libx264 @ 0x2ae71c0] ref P L0: 62.7%  1.8% 16.8%  4.9%  4.3%  3.6%  3.8%  2.1%  0.0%
[libx264 @ 0x2ae71c0] ref B L0: 94.7%  3.0%  1.1%  0.4%  0.3%  0.2%  0.2%
[libx264 @ 0x2ae71c0] ref B L1: 98.9%  1.1%
[libx264 @ 0x2ae71c0] kb/s:7053.43
